#!OML:ASF X:\für Bonn\!DataBase\2005_08_10_Bjorn_Final\c3d\bjorn.ASF
:FULLY-SPECIFIED
:DEGREES
272
root -5.92086 18.642 10.9805 -1472.48 71.8607 -38.249
lowerback -1.86389 4.08354 6.84051
upperback 6.60211 5.18038 0.52895
thorax 8.59383 3.03002 -2.73324
lowerneck -3.06193 2.04418 3.36411
upperneck 7.22296 2.87662 -3.96114
head 2.97708 1.40683 -1.7751
rclavicle 7.81224e-014 2.22639e-014
rhumerus -33.9037 20.9496 -105.926
rradius 87.2986
rwrist 6.71214
rhand -29.8438 37.6676
rfingers 7.12502
rthumb -3.16657 7.71135
lclavicle 7.81224e-014 2.22639e-014
lhumerus -57.0242 -22.5929 100.624
lradius 86.2077
lwrist -6.84622
lhand -46.2172 -23.6997
lfingers 7.12502
lthumb -18.9545 5.39674
rfemur 16.6025 -3.59033 15.6407
rtibia 23.8931
rfoot 12.8414 11.2602
rtoes -31.6631
lfemur -35.0086 8.88911 -25.5197
ltibia 38.0395
lfoot -12.7763 -0.637578
ltoes -4.11978
273
root -5.58775 18.6342 11.0492 -1473.74 72.3221 -39.4134
lowerback -2.10099 4.10984 6.8793
upperback 6.57488 5.20767 0.319866
thorax 8.73288 3.05516 -2.95493
lowerneck -2.83528 1.98766 3.40752
upperneck 7.29735 2.78842 -3.68577
head 2.95013 1.37626 -1.69593
rclavicle 1.08139e-013 -1.35174e-014
rhumerus -34.3391 21.014 -106.36
rradius 87.2431
rwrist 7.24429
rhand -28.9407 37.9152
rfingers 7.12502
rthumb -2.29444 7.94778
lclavicle 1.08139e-013 -1.35174e-014
lhumerus -56.7849 -22.4294 100.103
lradius 86.2581
lwrist -6.4835
lhand -45.9801 -23.0441
lfingers 7.12502
lthumb -18.7265 6.0745
rfemur 16.5188 -3.26852 15.5787
rtibia 25.4003
rfoot 13.9533 11.2923
rtoes -29.9046
lfemur -34.5599 9.12563 -26.0524
ltibia 36.3904
lfoot -12.1783 -0.678989
ltoes -4.94184
274
root -5.25892 18.6131 11.1168 -1475.18 72.7657 -40.704
lowerback -2.23156 4.11669 6.93391
upperback 6.5333 5.21713 0.111579
thorax 8.79334 3.07125 -3.19609
lowerneck -2.59537 1.94889 3.49146
upperneck 7.38693 2.72516 -3.43004
head 2.9286 1.35884 -1.62987
rclavicle -1.70955e-014 -1.82882e-014
rhumerus -34.7937 20.8681 -106.768
rradius 87.0462
rwrist 7.80387
rhand -28.0754 37.8785
rfingers 7.12502
rthumb -1.45876 7.9037
lclavicle -1.70955e-014 -1.82882e-014
lhumerus -56.473 -22.3334 99.5888
lradius 86.1725
lwrist -6.22846
lhand -45.9101 -22.4415
lfingers 7.12502
lthumb -18.6592 6.68362
rfemur 16.349 -3.0311 15.4891
rtibia 27.1551
rfoot 14.67 11.4041
rtoes -28.2074
lfemur -34.0833 9.23743 -26.4846
ltibia 35.2868
lfoot -11.6851 -0.496657
ltoes -3.89967
275
root -4.93456 18.5811 11.1818 -1476.66 73.2511 -42.0097
lowerback -2.27067 4.10794 6.93989
upperback 6.48652 5.217 -0.103834
thorax 8.78838 3.07871 -3.427
lowerneck -2.4439 1.9125 3.63456
upperneck 7.55938 2.66533 -3.21345
head 2.95442 1.34322 -1.58721
rclavicle -5.96354e-015 1.82882e-014
rhumerus -35.312 20.5943 -107.117
rradius 86.7006
rwrist 8.30217
rhand -27.5313 37.8846
rfingers 7.12502
rthumb -0.933219 7.90686
lclavicle -5.96354e-015 1.82882e-014
lhumerus -56.0564 -22.3124 99.0876
lradius 85.9112
lwrist -6.0374
lhand -45.9381 -22.3122
lfingers 7.12502
lthumb -18.6862 6.81027
rfemur 16.0882 -2.86915 15.3178
rtibia 29.1247
rfoot 14.8456 11.3734
rtoes -27.0701
lfemur -33.5899 9.15286 -26.8778
ltibia 34.766
lfoot -11.4915 -0.0982278
ltoes -1.68402
276
root -4.61469 18.5433 11.2438 -1478.2 73.7186 -43.3662
lowerback -2.24339 4.07688 6.93639
upperback 6.44846 5.19359 -0.324967
thorax 8.75053 3.07448 -3.6664
lowerneck -2.45134 1.89169 3.79098
upperneck 7.79103 2.62199 -3.00906
head 3.03171 1.33489 -1.54992
rclavicle -3.73715e-014 1.74931e-014
rhumerus -35.8368 20.1248 -107.457
rradius 86.1427
rwrist 8.94049
rhand -27.2911 38.165
rfingers 7.12502
rthumb -0.701204 8.18642
lclavicle -3.73715e-014 1.74931e-014
lhumerus -55.6429 -22.2544 98.564
lradius 85.7568
lwrist -5.9515
lhand -46.1405 -22.3219
lfingers 7.12502
lthumb -18.8808 6.78178
rfemur 15.6923 -2.79367 15.0723
rtibia 31.2828
rfoot 14.6281 11.1053
rtoes -26.0532
lfemur -33.139 8.81739 -27.1525
ltibia 34.8422
lfoot -11.6219 0.554255
ltoes 1.19476
277
root -4.29989 18.4993 11.3045 -1479.68 74.2381 -44.6352
lowerback -2.16479 4.02683 6.80365
upperback 6.4512 5.15694 -0.538262
thorax 8.7102 3.05691 -3.82976
lowerneck -2.59354 1.89028 3.95474
upperneck 8.00833 2.59828 -2.82591
head 3.13138 1.33482 -1.51959
rclavicle -3.26007e-014 7.95139e-016
rhumerus -36.3341 19.4937 -107.679
rradius 85.4142
rwrist 9.70633
rhand -27.4033 38.6572
rfingers 7.12502
rthumb -0.809605 8.67897
lclavicle -3.26007e-014 7.95139e-016
lhumerus -55.1107 -22.1496 98.0291
lradius 85.6252
lwrist -5.95436
lhand -46.4067 -22.577
lfingers 7.12502
lthumb -19.1368 6.50151
rfemur 15.189 -2.74705 14.7314
rtibia 33.6298
rfoot 14.1836 10.5843
rtoes -24.6586
lfemur -32.7095 8.39936 -27.449
ltibia 35.4606
lfoot -12.0547 1.17531
ltoes 4.44813
278
root -3.9911 18.447 11.3629 -1481.2 74.763 -45.9418
lowerback -2.04193 3.95542 6.66591
upperback 6.478 5.09676 -0.766804
thorax 8.66825 3.02958 -4.01125
lowerneck -2.8305 1.9091 4.16229
upperneck 8.18943 2.59434 -2.67481
head 3.23968 1.34403 -1.50639
rclavicle 7.63333e-014 -1.59028e-014
rhumerus -36.7467 18.795 -107.851
rradius 84.6307
rwrist 10.3382
rhand -27.7338 38.8796
rfingers 7.12502
rthumb -1.12879 8.9028
lclavicle 7.63333e-014 -1.59028e-014
lhumerus -54.4977 -22.0074 97.4678
lradius 85.5378
lwrist -6.02301
lhand -46.6908 -22.9403
lfingers 7.12502
lthumb -19.41 6.11097
rfemur 14.5613 -2.70453 14.3503
rtibia 36.1526
rfoot 13.6494 9.80499
rtoes -22.6175
lfemur -32.2964 7.82703 -27.7047
ltibia 36.5233
lfoot -12.6824 1.8495
ltoes 8.01001
